<?xml version="1.0" encoding="utf-8"?>
<!-- Generator: Adobe Illustrator 24.0.2, SVG Export Plug-In . SVG Version: 6.00 Build 0)  -->
<svg version="1.1" id="Слой_1" xmlns="http://www.w3.org/2000/svg" xmlns:xlink="http://www.w3.org/1999/xlink" x="0px" y="0px"
	 viewBox="0 0 2000 2000" style="enable-background:new 0 0 2000 2000;" xml:space="preserve">
<style type="text/css">
	.st0{fill:#EFA26F;}
	.st1{fill:#F99746;}
	.st2{fill:#FFB27D;}
	.st3{fill:#D38254;}
	.st4{fill:#FFC197;}
	.st5{fill:#2B478B;}
	.st6{fill:#C0D8FB;}
	.st7{fill:#CBE1FD;}
	.st8{fill:#FFD3B6;}
	.st9{fill:#ED7D2B;}
	.st10{fill:#F3F8FF;}
</style>
<path class="st0" d="M1432.77,997.38c0,0-95.23,190.51-191.97,322.02c-38.49,52.34-77.22,95.33-110.27,113.26
	c-32.36,17.54-59.75,44.8-82.41,75.01c-58.7,78.21-85.79,176.12-85.79,176.12l-247.36-374.23c0,0,8.44-365.81,38.14-427
	c43.29-89.17,64.2-269.34,80.83-305.21c12.34-26.61,47.57-164.06,50.95-174.16c1.47-4.35,13.19-11.03,28.41-11.01
	c12.22,0,32.96,11.81,38.19,36.07c26.45,122.65-5.39,203.54-5.03,207.14c9.33,94.26-18.72,164.23,0.95,182.76
	c0.73,0.69,2.09,0.36,4.02-0.87c34.1-21.9,245.75-330.46,271.82-337.12C1250.77,473.13,1432.77,997.38,1432.77,997.38z"/>
<path class="st1" d="M1036.74,1609.72c0,0-3.37,166.3-13.01,390.28H399.78c142.62-304.14,266.62-560.12,266.62-560.12
	S1021.67,1450.73,1036.74,1609.72z"/>
<path class="st2" d="M1649.04,352.63l-76.6,112.3l-75.17,110.2c-4.58,5.53-9.89,7.45-15.63,6.9c-18.04-1.71-40.36-27.73-57.75-42.13
	l-1.76-1.45c-22.94-18.97-26.17-53.26-7.2-76.18l114.89-138.88v-0.01l34.08-41.18c18.97-22.94,53.26-26.17,76.18-7.2l1.76,1.45
	C1664.77,295.4,1668.01,329.69,1649.04,352.63z"/>
<path class="st0" d="M1572.44,464.92l-75.17,110.2c-4.58,5.53-9.89,7.45-15.63,6.9l48.17-258.64
	C1529.92,324.83,1538.11,440.88,1572.44,464.92z"/>
<path class="st3" d="M1240.8,1319.4c-38.49,52.34-77.22,95.33-110.27,113.26c-32.36,17.54-59.75,44.8-82.41,75.01
	c-26.07-12.15-55.79-26.41-84.84-40.53c-35.37-17.19-36.73-67.42-2.08-86.03c0.34-0.18,0.67-0.37,1-0.55
	c32.47-18.58,65.73-84.17,65.73-84.17L1240.8,1319.4z"/>
<path class="st4" d="M883.15,408.87l-20.04,80.92c0,0,17.52,7.17,28.77,1.6C903.14,485.83,912.32,413.23,883.15,408.87z"/>
<g>
	<path class="st5" d="M1459.54,1357.64h-430.98c-42.39,0-77.08-34.68-77.08-77.08V333.25c0-42.39,34.68-77.08,77.08-77.08h430.98
		c42.39,0,77.08,34.68,77.08,77.08v947.31C1536.61,1322.95,1501.93,1357.64,1459.54,1357.64z"/>
	<g>
		<path class="st6" d="M1507.61,340.54v925.36c0,31.39-25.5,57.07-56.66,57.07h-413.83c-31.15,0-56.65-25.68-56.65-57.07V340.54
			c0-31.39,25.49-57.07,56.65-57.07h413.83C1482.11,283.47,1507.61,309.15,1507.61,340.54z"/>
		<path class="st7" d="M1450.96,283.47l-408.71,1039.5h-5.12c-31.15,0-56.65-25.68-56.65-57.07V340.54
			c0-31.39,25.49-57.07,56.65-57.07H1450.96z"/>
	</g>
	<path class="st5" d="M1330.53,317.88h-172.96c-14.09,0-25.62-11.53-25.62-25.62v-4.03c0-14.09,11.53-25.62,25.62-25.62h172.96
		c14.09,0,25.62,11.53,25.62,25.62v4.03C1356.14,306.36,1344.62,317.88,1330.53,317.88z"/>
</g>
<g>
	<path class="st2" d="M1610.91,776.7l-11.42,4.34l-76.82,29.19c-1.8,0.68-3.62,1.27-5.44,1.73c-25.44,6.61-52.5-6.95-62.04-32.05
		l-1.13-2.95c-10.22-26.9,3.42-57.27,30.32-67.49l71.61-27.21l5.2-1.98l11.42-4.34c26.9-10.22,57.26,3.42,67.48,30.32l1.13,2.95
		C1651.45,736.1,1637.81,766.48,1610.91,776.7z"/>
	<path class="st8" d="M1548.53,778.46c-12.82,4.86-36.03,13.48-48.44,15.26c-3.51,0.51-9.98-1.4-16.02-8.02
		c-3.62-3.96-7.09-9.6-9.66-17.42c-1.21-3.68-2.21-7.34-2.63-11.12c-0.48-4.42-0.35-8.85,0.42-13.23c0.7-3.95,3.4-7.54,7.33-9.44
		c0.01-0.01,0.04-0.01,0.06-0.03c13.2-6.3,30.99-13.98,46.59-18.27c10.78-2.98,21.69,1.78,25.11,11.22l1.61,4.41l8.24,22.58
		C1564.55,763.79,1559,774.51,1548.53,778.46z"/>
	<path class="st4" d="M1548.53,778.46c-12.82,4.86-36.03,13.48-48.44,15.26c-3.51,0.51-9.98-1.4-16.02-8.02
		c-0.65-1.5-1.24-3.09-1.8-4.79c-1.21-3.68-2.21-7.34-2.63-11.12c-0.48-4.42-0.35-8.85,0.42-13.23c0.7-3.95,3.4-7.54,7.33-9.44
		c0.01-0.01,0.04-0.01,0.06-0.03c13.2-6.3,30.99-13.98,46.59-18.27c6.91-1.91,13.86-0.65,18.86,2.99l8.24,22.58
		C1564.55,763.79,1559,774.51,1548.53,778.46z"/>
</g>
<g>
	<path class="st2" d="M1576.05,884.69l-59.24,16.13c-18,4.9-36.74-5.82-41.64-23.82l-1.83-6.7c-4.9-18,5.82-36.74,23.82-41.64
		l59.24-16.13c18-4.9,36.74,5.82,41.64,23.82l1.83,6.7C1604.77,861.06,1594.05,879.79,1576.05,884.69z"/>
	<path class="st8" d="M1544.02,881.79c-10.88,2.91-30.55,8.03-40.86,8.59c-3.75,0.21-11.26-2.96-16.16-12.82
		c-1.21-2.39-2.23-5.15-3.03-8.35c-0.72-2.91-1.26-5.79-1.32-8.71c-0.07-3.44,0.37-6.82,1.32-10.14c0.86-2.99,3.34-5.57,6.7-6.77
		c0.03-0.01,0.04-0.01,0.06-0.03c11.29-3.99,26.45-8.75,39.57-11.04c9.06-1.59,17.65,2.77,19.77,10.24l1.53,5.34l4.56,16.02
		C1558.26,871.54,1552.91,879.43,1544.02,881.79z"/>
	<path class="st4" d="M1544.02,881.79c-10.88,2.91-30.55,8.03-40.86,8.59c-3.75,0.21-11.26-2.96-16.16-12.82
		c-0.66-2.71-1.14-5.42-1.19-8.17c-0.07-3.43,0.36-6.82,1.32-10.14c0.86-2.98,3.34-5.57,6.7-6.77c0.03-0.01,0.04-0.01,0.06-0.03
		c11.29-3.99,26.45-8.75,39.57-11.02c7.5-1.32,14.69,1.45,18.14,6.67l4.56,16.02C1558.26,871.54,1552.91,879.43,1544.02,881.79z"/>
</g>
<path class="st9" d="M605.66,1566.05c0,0,121.93,116.78,204.12,161.87l62.23-44.14v65.12c0,0,122.39,21.64,161,0v-177.57
	l-343.76-172.33L605.66,1566.05z"/>
<path class="st10" d="M714.97,1296.38c0,0-77.43,115.83-154.38,239.68c0,0,162.18,111.57,250.1,144.29l115.33-132.08l-16.46,159
	c0,0,102.06,37.2,149.42,27.49c0,0-2.99-144.24-2.96-238.74C1056.01,1496.01,775.44,1417.37,714.97,1296.38z"/>
<path class="st1" d="M734.01,1590.34c0.1-10.6,8.77-19.12,19.37-19.02c10.6,0.1,19.12,8.77,19.02,19.37s-8.77,19.12-19.37,19.02
	C742.43,1609.62,733.92,1600.94,734.01,1590.34z"/>
<g>
	<path class="st2" d="M1609.04,663.17c-0.42,0.15-0.84,0.29-1.28,0.44l-77.66,19.94c-34.15,8.78-69.46-9.7-78.48-41.06l-4.62-16.06
		c-8.66-30.1,9.96-61.58,41.69-71.79l25.64-6.59l52.02-13.35c34.15-8.78,69.46,9.7,78.47,41.06l4.62,16.06
		C1657.99,621.51,1639.99,652.53,1609.04,663.17z"/>
	<path class="st8" d="M1573.45,641.49l-37.73,17c-0.06,0.01-0.13,0.03-0.24,0.06c-1.52,0.41-3.05,0.72-4.56,0.94
		c-0.63,0.1-1.28,0.17-1.91,0.24c-0.27,0.03-0.53,0.03-0.8,0.01c-4.16-0.14-7.01-4.55-5.21-8.48c3.57-7.76,4.54-16.75,2.13-25.58
		l-0.9-3.29c0-0.03-0.01-0.07-0.03-0.1l-2.92-10.71c-2.32-8.54-7.25-15.68-13.68-20.85c-0.77-0.63-1.57-1.22-2.39-1.78
		c-7.46-5.17-5.56-16.86,3.17-19.29c0.08-0.03,0.15-0.04,0.24-0.07l41.41-6.26c10.24-2.78,20.09,5.1,22.89,15.33l3.33,12.2
		l7.08,26.02C1586.12,627.13,1583.69,638.71,1573.45,641.49z"/>
	<path class="st4" d="M1573.45,641.49l-37.73,17c-0.06,0.01-0.13,0.03-0.24,0.06c-0.88,0.17-3.65,0.63-7.27,1.19
		c-4.16-0.14-7.01-4.55-5.21-8.48c3.57-7.76,4.54-16.75,2.13-25.58l-0.9-3.29c0-0.03-0.01-0.07-0.03-0.1l-2.92-10.71
		c-2.32-8.54-7.25-15.68-13.68-20.85c1.33-1.95,3.33-3.5,5.94-4.23c0.07-0.03,0.15-0.04,0.24-0.07l41.41-6.26
		c8.62-2.34,16.96,2.88,21.06,10.69l7.08,26.02C1586.12,627.13,1583.69,638.71,1573.45,641.49z"/>
</g>
<path class="st3" d="M951.48,1067.12c0,0-16.94-147.9-32.57-176.73c-15.63-28.85-28.86-86.6-4.81-129.51
	c24.05-42.93,32.36-125.5,32.36-125.5c9.33,94.26-18.72,164.23,0.95,182.76c0.73,0.69,2.09,0.36,4.02-0.87L951.48,1067.12z"/>
</svg>
